<mxfile host="65bd71144e">
    <diagram id="HrtnHLrTt0xwH7reOhbB" name="Page-1">
        <mxGraphModel dx="564" dy="588" grid="1" gridSize="10" guides="1" tooltips="1" connect="1" arrows="1" fold="1" page="1" pageScale="1" pageWidth="850" pageHeight="1100" math="0" shadow="0">
            <root>
                <mxCell id="0"/>
                <mxCell id="1" parent="0"/>
                <mxCell id="4" style="edgeStyle=none;html=1;exitX=0;exitY=1;exitDx=0;exitDy=0;entryX=0.5;entryY=0;entryDx=0;entryDy=0;" parent="1" source="2" target="3" edge="1">
                    <mxGeometry relative="1" as="geometry"/>
                </mxCell>
                <mxCell id="6" style="edgeStyle=none;html=1;exitX=0.5;exitY=1;exitDx=0;exitDy=0;" parent="1" source="2" target="5" edge="1">
                    <mxGeometry relative="1" as="geometry"/>
                </mxCell>
                <mxCell id="2" value="&lt;b style=&quot;background-color: rgb(240 , 19 , 19)&quot;&gt;APP&lt;/b&gt;" style="rounded=1;whiteSpace=wrap;html=1;strokeWidth=2;fillWeight=4;hachureGap=8;hachureAngle=45;fillColor=#1ba1e2;sketch=1;" parent="1" vertex="1">
                    <mxGeometry x="420" y="40" width="120" height="60" as="geometry"/>
                </mxCell>
                <mxCell id="3" value="Header" style="shape=ext;double=1;rounded=1;whiteSpace=wrap;html=1;labelBackgroundColor=#F01313;" parent="1" vertex="1">
                    <mxGeometry x="140" y="190" width="120" height="80" as="geometry"/>
                </mxCell>
                <mxCell id="13" value="tProjObj" style="edgeStyle=none;html=1;" parent="1" source="5" target="7" edge="1">
                    <mxGeometry relative="1" as="geometry"/>
                </mxCell>
                <mxCell id="14" value="ProjObj" style="edgeStyle=none;html=1;" parent="1" source="5" target="10" edge="1">
                    <mxGeometry relative="1" as="geometry"/>
                </mxCell>
                <mxCell id="15" value="ProjObj" style="edgeStyle=none;html=1;entryX=0.601;entryY=0.008;entryDx=0;entryDy=0;entryPerimeter=0;" parent="1" source="5" target="12" edge="1">
                    <mxGeometry relative="1" as="geometry"/>
                </mxCell>
                <mxCell id="16" value="ProjObj" style="edgeStyle=none;html=1;" parent="1" source="5" target="11" edge="1">
                    <mxGeometry relative="1" as="geometry"/>
                </mxCell>
                <mxCell id="5" value="Project List" style="rounded=0;whiteSpace=wrap;html=1;labelBackgroundColor=#F01313;" parent="1" vertex="1">
                    <mxGeometry x="410" y="200" width="120" height="60" as="geometry"/>
                </mxCell>
                <mxCell id="7" value="Project List Item" style="rounded=0;whiteSpace=wrap;html=1;labelBackgroundColor=#F01313;" parent="1" vertex="1">
                    <mxGeometry x="120" y="440" width="120" height="60" as="geometry"/>
                </mxCell>
                <mxCell id="10" value="Project List Item" style="rounded=0;whiteSpace=wrap;html=1;labelBackgroundColor=#F01313;fontStyle=1" parent="1" vertex="1">
                    <mxGeometry x="280" y="440" width="120" height="60" as="geometry"/>
                </mxCell>
                <mxCell id="11" value="Project List Item" style="rounded=0;whiteSpace=wrap;html=1;labelBackgroundColor=#F01313;" parent="1" vertex="1">
                    <mxGeometry x="600" y="440" width="120" height="60" as="geometry"/>
                </mxCell>
                <mxCell id="12" value="Project List Item" style="rounded=0;whiteSpace=wrap;html=1;labelBackgroundColor=#F01313;" parent="1" vertex="1">
                    <mxGeometry x="450" y="440" width="120" height="60" as="geometry"/>
                </mxCell>
            </root>
        </mxGraphModel>
    </diagram>
</mxfile>